HIERARCHY
ROOT joint_Root
{
	OFFSET 0.0 0.0 0.0
	CHANNELS 6 Xposition Yposition Zposition Zrotation Xrotation Yrotation 
	JOINT Hips
	{
		OFFSET 4.5925 91.4895 -427.239
		CHANNELS 6 Xposition Yposition Zposition Zrotation Xrotation Yrotation 
		JOINT Spine
		{
			OFFSET 15.7357 0.0 0.0
			CHANNELS 6 Xposition Yposition Zposition Zrotation Xrotation Yrotation 
			JOINT Chest
			{
				OFFSET 8.98455 -0.406207 0.0
				CHANNELS 6 Xposition Yposition Zposition Zrotation Xrotation Yrotation 
				JOINT Neck
				{
					OFFSET 16.3773 0.0 0.0
					CHANNELS 6 Xposition Yposition Zposition Zrotation Xrotation Yrotation 
					JOINT Head
					{
						OFFSET 6.45672 0.0 0.0
						CHANNELS 6 Xposition Yposition Zposition Zrotation Xrotation Yrotation 
						End Site
						{
							OFFSET 0.0 0.0 0.0
						}
					}
				}
				JOINT Shoulder_L
				{
					OFFSET 12.9942 -0.242716 4.98039
					CHANNELS 6 Xposition Yposition Zposition Zrotation Xrotation Yrotation 
					JOINT UpperArm_L
					{
						OFFSET 5.34809 0.0 0.0
						CHANNELS 6 Xposition Yposition Zposition Zrotation Xrotation Yrotation 
						JOINT LowerArm_L
						{
							OFFSET 24.3286 1.87007e-05 0.0
							CHANNELS 6 Xposition Yposition Zposition Zrotation Xrotation Yrotation 
							JOINT Hand_L
							{
								OFFSET 22.2916 0.0 0.0
								CHANNELS 6 Xposition Yposition Zposition Zrotation Xrotation Yrotation 
								End Site
								{
									OFFSET 0.0 0.0 0.0
								}
							}
						}
					}
				}
				JOINT Shoulder_R
				{
					OFFSET 12.9945 -0.242716 -4.98039
					CHANNELS 6 Xposition Yposition Zposition Zrotation Xrotation Yrotation 
					JOINT UpperArm_R
					{
						OFFSET -5.34813 0.0 0.0
						CHANNELS 6 Xposition Yposition Zposition Zrotation Xrotation Yrotation 
						JOINT LowerArm_R
						{
							OFFSET -24.3289 0.000322201 0.0
							CHANNELS 6 Xposition Yposition Zposition Zrotation Xrotation Yrotation 
							JOINT Hand_R
							{
								OFFSET -22.2915 -0.000108084 0.0
								CHANNELS 6 Xposition Yposition Zposition Zrotation Xrotation Yrotation 
								End Site
								{
									OFFSET 0.0 0.0 0.0
								}
							}
						}
					}
				}
			}
		}
		JOINT UpperLeg_L
		{
			OFFSET -2.19248 -6.46944 0.0
			CHANNELS 6 Xposition Yposition Zposition Zrotation Xrotation Yrotation 
			JOINT LowerLeg_L
			{
				OFFSET 39.0811 0.0 -1.23785e-05
				CHANNELS 6 Xposition Yposition Zposition Zrotation Xrotation Yrotation 
				JOINT Foot_L
				{
					OFFSET 40.9854 0.0 -1.26872e-05
					CHANNELS 6 Xposition Yposition Zposition Zrotation Xrotation Yrotation 
					JOINT Toes_L
					{
						OFFSET 11.7543 0.0 0.0
						CHANNELS 6 Xposition Yposition Zposition Zrotation Xrotation Yrotation 
						End Site
						{
							OFFSET 0.0 0.0 0.0
						}
					}
				}
			}
		}
		JOINT UpperLeg_R
		{
			OFFSET -2.19251 6.46944 0.0
			CHANNELS 6 Xposition Yposition Zposition Zrotation Xrotation Yrotation 
			JOINT LowerLeg_R
			{
				OFFSET -39.0811 -0.00228153 -0.0401928
				CHANNELS 6 Xposition Yposition Zposition Zrotation Xrotation Yrotation 
				JOINT Foot_R
				{
					OFFSET -40.9854 0.0 0.0
					CHANNELS 6 Xposition Yposition Zposition Zrotation Xrotation Yrotation 
					JOINT Toes_R
					{
						OFFSET -11.7543 0.0 0.0
						CHANNELS 6 Xposition Yposition Zposition Zrotation Xrotation Yrotation 
						End Site
						{
							OFFSET 0.0 0.0 0.0
						}
					}
				}
			}
		}
	}
}
MOTION
Frames:	9
Frame Time:	0.0333333
0.000000 0.000000 0.000000 0.000000 0.000000 -0.000000 -1.803200 90.824200 -3.691630 88.684000 -1.365330 12.801500 15.735700 0.000005 -0.000001 89.485000 76.820400 -89.447000 8.984550 -0.406207 -0.000000 18.592300 -0.228714 0.113617 16.377300 -0.000001 -0.000001 6.580060 -3.532740 0.861014 6.456720 -0.000001 -0.000000 -9.277350 -3.211940 2.148250 12.994200 -0.242716 4.980390 -91.062600 6.586970 -80.815300 5.348090 -0.000007 -0.000001 -60.458500 30.296400 -27.018100 24.328600 0.000019 0.000005 12.193100 23.541100 -28.413500 22.291600 -0.000001 0.000005 10.759800 5.254360 1.317370 12.994500 -0.242716 -4.980390 89.149600 10.565500 -85.372000 -5.348130 -0.000001 -0.000004 -56.009000 36.338100 -24.030300 -24.328900 0.000322 -0.000009 2.796170 6.688390 -22.758300 -22.291500 -0.000108 -0.000004 18.578700 5.427620 -3.857590 -2.192480 -6.469440 -0.000000 -171.930000 -14.005000 -0.866188 39.081100 -0.000007 -0.000012 -0.168384 0.268555 32.088000 40.985400 -0.000006 -0.000013 -0.623973 5.877780 -67.711100 11.754300 -0.000000 0.000003 -0.000183 -0.001717 -16.642500 -2.192510 6.469440 -0.000001 173.731000 25.006200 -178.277000 -39.081100 -0.002282 -0.040193 -0.188809 0.323248 30.723700 -40.985400 0.000008 0.000006 4.651700 15.413100 -68.949700 -11.754300 -0.000006 -0.000006 -0.002490 -0.034689 -17.983700
0.000000 0.000000 0.000000 0.000000 0.000000 -0.000000 -1.809680 90.824900 -3.721410 88.691700 -1.362440 12.818700 15.735700 0.000005 -0.000001 89.505100 76.801900 -89.475300 8.984550 -0.406207 -0.000000 18.629400 -0.220726 0.095948 16.377300 -0.000001 -0.000001 6.616740 -3.567280 0.869538 6.456720 -0.000001 -0.000000 -9.232140 -3.272740 2.133420 12.994200 -0.242716 4.980390 -91.073700 6.606800 -80.748100 5.348090 -0.000007 -0.000001 -60.278200 30.003500 -27.066700 24.328600 0.000019 0.000005 12.677200 23.210300 -29.716200 22.291600 -0.000001 0.000005 10.777900 5.263060 1.085050 12.994500 -0.242716 -4.980390 89.143900 10.581300 -85.347700 -5.348130 -0.000001 -0.000004 -55.950600 36.317800 -24.069000 -24.328900 0.000322 -0.000009 2.777330 6.614550 -22.846000 -22.291500 -0.000108 -0.000004 18.570900 5.428120 -3.874500 -2.192480 -6.469440 -0.000000 -171.939000 -13.998000 -0.875243 39.081100 -0.000007 -0.000012 -0.167796 0.267646 32.085300 40.985400 -0.000006 -0.000013 -0.627832 5.864660 -67.682600 11.754300 -0.000000 0.000003 -0.000181 -0.001699 -16.641800 -2.192510 6.469440 -0.000001 173.728000 25.003900 -178.285000 -39.081100 -0.002282 -0.040193 -0.188076 0.321914 30.731500 -40.985400 0.000008 0.000006 4.659890 15.415400 -68.936100 -11.754300 -0.000006 -0.000006 -0.002459 -0.034326 -17.968900
0.000000 0.000000 0.000000 0.000000 0.000000 -0.000000 -1.819240 90.817600 -3.764870 88.661900 -1.340120 12.824800 15.735700 0.000005 -0.000001 89.544400 76.777100 -89.507200 8.984550 -0.406207 -0.000000 18.679100 -0.202591 0.108042 16.377300 -0.000001 -0.000001 6.625590 -3.607080 0.934031 6.456720 -0.000001 -0.000000 -9.196200 -3.288300 2.078570 12.994200 -0.242716 4.980390 -91.091600 6.648590 -80.654200 5.348090 -0.000007 -0.000001 -59.939400 29.675000 -27.220400 24.328600 0.000019 0.000005 13.369800 22.870100 -31.447900 22.291600 -0.000001 0.000005 10.921900 5.262950 1.087950 12.994500 -0.242716 -4.980390 89.138000 10.587900 -85.318600 -5.348130 -0.000001 -0.000004 -55.907300 36.233300 -24.119500 -24.328900 0.000322 -0.000009 2.773510 6.576980 -22.934200 -22.291500 -0.000108 -0.000004 18.528400 5.426940 -3.834180 -2.192480 -6.469440 -0.000000 -171.914000 -13.966100 -0.937629 39.081100 -0.000007 -0.000012 -0.167218 0.266097 32.145900 40.985400 -0.000006 -0.000013 -0.621692 5.889600 -67.679200 11.754300 -0.000000 0.000003 -0.000186 -0.001740 -16.643300 -2.192510 6.469440 -0.000001 173.772000 25.025800 -178.325000 -39.081100 -0.002282 -0.040193 -0.190265 0.325185 30.763300 -40.985400 0.000008 0.000006 4.670500 15.388800 -68.925400 -11.754300 -0.000006 -0.000006 -0.002608 -0.036080 -18.040300
0.000000 0.000000 0.000000 0.000000 0.000000 -0.000000 -1.834800 90.818900 -3.785900 88.659000 -1.315010 12.893100 15.735700 0.000005 -0.000001 89.651400 76.744300 -89.613600 8.984550 -0.406207 -0.000000 18.744900 -0.154494 0.101362 16.377300 -0.000001 -0.000001 6.701770 -3.635250 0.895747 6.456720 -0.000001 -0.000000 -9.115770 -3.379400 2.117350 12.994200 -0.242716 4.980390 -91.102000 6.661160 -80.584300 5.348090 -0.000007 -0.000001 -59.568100 29.306800 -27.485600 24.328600 0.000019 0.000005 13.823500 22.149100 -33.130000 22.291600 -0.000001 0.000005 11.233200 5.268900 0.927846 12.994500 -0.242716 -4.980390 89.130700 10.598900 -85.284000 -5.348130 -0.000001 -0.000004 -55.779900 36.270100 -24.172300 -24.328900 0.000322 -0.000009 2.706660 6.407240 -22.967200 -22.291500 -0.000108 -0.000004 18.519000 5.426790 -3.828970 -2.192480 -6.469440 -0.000000 -171.885000 -13.943300 -0.875513 39.081100 -0.000007 -0.000012 -0.167427 0.266540 32.135200 40.985400 -0.000006 -0.000013 -0.635400 5.891610 -67.659800 11.754300 -0.000000 0.000003 -0.000182 -0.001709 -16.642200 -2.192510 6.469440 -0.000001 173.759000 25.029300 -178.257000 -39.081100 -0.002282 -0.040193 -0.188202 0.321822 30.755300 -40.985400 0.000008 0.000006 4.678850 15.376100 -68.914600 -11.754300 -0.000006 -0.000006 -0.002309 -0.032517 -17.895400
0.000000 0.000000 0.000000 0.000000 0.000000 -0.000000 -1.840790 90.813700 -3.817620 88.661400 -1.277230 12.920800 15.735700 0.000005 -0.000001 89.765900 76.718200 -89.728400 8.984550 -0.406207 -0.000000 18.797400 -0.102772 0.092260 16.377300 -0.000001 -0.000001 6.712460 -3.653010 0.949848 6.456720 -0.000001 -0.000000 -8.977100 -3.399350 2.080070 12.994200 -0.242716 4.980390 -91.111100 6.677720 -80.531000 5.348090 -0.000007 -0.000001 -59.009900 28.954600 -27.888800 24.328600 0.000019 0.000005 14.453100 21.519700 -35.093600 22.291600 -0.000001 0.000005 11.342000 5.270990 0.871286 12.994500 -0.242716 -4.980390 89.128300 10.593600 -85.269000 -5.348130 -0.000001 -0.000004 -55.691900 36.249000 -24.224900 -24.328900 0.000322 -0.000009 2.752370 6.527990 -22.929700 -22.291500 -0.000108 -0.000004 18.507300 5.425200 -3.775010 -2.192480 -6.469440 -0.000000 -171.880000 -13.944600 -0.896041 39.081100 -0.000007 -0.000012 -0.169727 0.269889 32.165100 40.985400 -0.000006 -0.000013 -0.623778 5.932080 -67.643200 11.754300 -0.000000 0.000003 -0.000185 -0.001731 -16.643000 -2.192510 6.469440 -0.000001 173.756000 25.060500 -178.271000 -39.081100 -0.002282 -0.040193 -0.187421 0.320029 30.793000 -40.985400 0.000008 0.000006 4.692770 15.359100 -68.911900 -11.754300 -0.000006 -0.000006 -0.002444 -0.034138 -17.961300
0.000000 0.000000 0.000000 0.000000 0.000000 -0.000000 -1.850310 90.812200 -3.858110 88.665600 -1.194100 12.977000 15.735700 0.000005 -0.000001 89.799500 76.688900 -89.761600 8.984550 -0.406207 -0.000000 18.856100 -0.087625 0.090596 16.377300 -0.000001 -0.000001 6.751240 -3.668530 0.986255 6.456720 -0.000001 -0.000000 -8.902480 -3.443780 2.072130 12.994200 -0.242716 4.980390 -91.120300 6.683870 -80.462300 5.348090 -0.000007 -0.000001 -58.481800 28.452400 -28.343100 24.328600 0.000019 0.000005 15.397000 21.205200 -37.283600 22.291600 -0.000001 0.000005 11.494900 5.276640 0.717884 12.994500 -0.242716 -4.980390 89.124100 10.603500 -85.250600 -5.348130 -0.000001 -0.000004 -55.655400 36.173700 -24.220800 -24.328900 0.000322 -0.000009 2.758040 6.554060 -22.890500 -22.291500 -0.000108 -0.000004 18.563600 5.425090 -3.771240 -2.192480 -6.469440 -0.000000 -171.885000 -13.905500 -0.884454 39.081100 -0.000007 -0.000012 -0.167880 0.266840 32.176000 40.985400 -0.000006 -0.000013 -0.612077 5.961260 -67.617100 11.754300 -0.000000 0.000003 -0.000183 -0.001722 -16.642700 -2.192510 6.469440 -0.000001 173.737000 25.067400 -178.234000 -39.081100 -0.002282 -0.040193 -0.188028 0.320871 30.806800 -40.985400 0.000008 0.000006 4.684860 15.303600 -68.901100 -11.754300 -0.000006 -0.000006 -0.002292 -0.032316 -17.887200
0.000000 0.000000 0.000000 0.000000 0.000000 -0.000000 -1.856960 90.800700 -3.901230 88.662300 -1.094170 12.996000 15.735700 0.000005 -0.000001 89.777200 76.664900 -89.738500 8.984550 -0.406207 -0.000000 18.904000 -0.097864 0.093856 16.377300 -0.000001 -0.000001 6.756020 -3.697240 1.041090 6.456720 -0.000001 -0.000000 -8.900150 -3.477210 2.047610 12.994200 -0.242716 4.980390 -91.137200 6.691050 -80.331300 5.348090 -0.000007 -0.000001 -57.883000 27.873600 -28.960400 24.328600 0.000019 0.000005 16.298600 20.756400 -39.524100 22.291600 -0.000001 0.000005 11.878200 5.282850 0.548650 12.994500 -0.242716 -4.980390 89.123200 10.593900 -85.241300 -5.348130 -0.000001 -0.000004 -55.607000 36.115300 -24.266900 -24.328900 0.000322 -0.000009 2.735630 6.526200 -22.810000 -22.291500 -0.000108 -0.000004 18.531000 5.428080 -3.873360 -2.192480 -6.469440 -0.000000 -171.909000 -13.809000 -0.962688 39.081100 -0.000007 -0.000012 -0.166299 0.263608 32.246400 40.985400 -0.000006 -0.000013 -0.604059 5.974310 -67.605700 11.754300 -0.000000 0.000003 -0.000192 -0.001786 -16.645000 -2.192510 6.469440 -0.000001 173.734000 25.117900 -178.269000 -39.081100 -0.002282 -0.040193 -0.189414 0.322334 30.874200 -40.985400 0.000008 0.000006 4.681300 15.232600 -68.908200 -11.754300 -0.000006 -0.000006 -0.002382 -0.033396 -17.931100
0.000000 0.000000 0.000000 0.000000 0.000000 -0.000000 -1.861090 90.798600 -3.913900 88.672500 -1.027100 13.082600 15.735700 0.000005 -0.000001 89.896800 76.626200 -89.857600 8.984550 -0.406207 -0.000000 18.981500 -0.043410 0.085802 16.377300 -0.000001 -0.000001 6.806230 -3.716660 1.073020 6.456720 -0.000001 -0.000000 -8.871440 -3.574300 2.045620 12.994200 -0.242716 4.980390 -91.154200 6.731950 -80.248300 5.348090 -0.000007 -0.000001 -57.221600 27.232000 -29.641200 24.328600 0.000019 0.000005 17.191400 20.206300 -41.851900 22.291600 -0.000001 0.000005 12.206900 5.282050 0.570059 12.994500 -0.242716 -4.980390 89.111900 10.630100 -85.196500 -5.348130 -0.000001 -0.000004 -55.524800 36.079800 -24.222100 -24.328900 0.000322 -0.000009 2.756010 6.546060 -22.900400 -22.291500 -0.000108 -0.000004 18.549000 5.425890 -3.798530 -2.192480 -6.469440 -0.000000 -171.892000 -13.787200 -0.890933 39.081100 -0.000007 -0.000012 -0.169402 0.268524 32.246600 40.985400 -0.000006 -0.000013 -0.599291 6.019820 -67.592200 11.754300 -0.000000 0.000003 -0.000189 -0.001765 -16.644300 -2.192510 6.469440 -0.000001 173.681000 25.138000 -178.181000 -39.081100 -0.002282 -0.040193 -0.189748 0.322705 30.888800 -40.985400 0.000008 0.000006 4.686570 15.225300 -68.915100 -11.754300 -0.000006 -0.000006 -0.002435 -0.034035 -17.957100
0.000000 0.000000 0.000000 0.000000 0.000000 -0.000000 -1.864360 90.793200 -3.947440 88.670400 -0.969754 13.112300 15.735700 0.000005 -0.000001 89.919200 76.608800 -89.883800 8.984550 -0.406207 -0.000000 19.016400 -0.033533 0.076692 16.377300 -0.000001 -0.000001 6.900420 -3.754060 1.141550 6.456720 -0.000001 -0.000000 -8.872890 -3.619000 2.033370 12.994200 -0.242716 4.980390 -91.172500 6.735690 -80.101900 5.348090 -0.000007 -0.000001 -56.749200 26.295600 -30.331100 24.328600 0.000019 0.000005 18.284400 19.792900 -44.296900 22.291600 -0.000001 0.000005 12.321800 5.282930 0.546021 12.994500 -0.242716 -4.980390 89.110000 10.641700 -85.191300 -5.348130 -0.000001 -0.000004 -55.396000 36.144600 -24.285200 -24.328900 0.000322 -0.000009 2.707340 6.430750 -22.897400 -22.291500 -0.000108 -0.000004 18.522900 5.424760 -3.760060 -2.192480 -6.469440 -0.000000 -171.896000 -13.753600 -0.911229 39.081100 -0.000007 -0.000012 -0.170031 0.269170 32.280300 40.985400 -0.000006 -0.000013 -0.578343 6.072560 -67.584300 11.754300 -0.000000 0.000003 -0.000171 -0.001619 -16.638900 -2.192510 6.469440 -0.000001 173.680000 25.147500 -178.184000 -39.081100 -0.002282 -0.040193 -0.189520 0.321916 30.920900 -40.985400 0.000008 0.000006 4.677420 15.161900 -68.910600 -11.754300 -0.000006 -0.000006 -0.002425 -0.033910 -17.952000
